<svg xmlns="http://www.w3.org/2000/svg"><defs><symbol id="square" viewBox="0 0 30 30"><path fill="currentColor" d="M0 0h30v30H0z"/></symbol><symbol id="round" viewBox="0 0 32 32"><rect width="32" height="32" rx="16" fill="currentColor"/></symbol><symbol id="triangle" viewBox="0 0 30 30"><path d="m0 0 32 32H0V0Z" fill="currentColor"/></symbol><symbol id="close" viewBox="0 0 24 24"><path fill-rule="evenodd" clip-rule="evenodd" d="M18.707 5.293a1 1 0 0 1 0 1.414l-12 12a1 1 0 0 1-1.414-1.414l12-12a1 1 0 0 1 1.414 0Z" fill="currentColor"/><path fill-rule="evenodd" clip-rule="evenodd" d="M5.293 5.293a1 1 0 0 1 1.414 0l12 12a1 1 0 0 1-1.414 1.414l-12-12a1 1 0 0 1 0-1.414Z" fill="currentColor"/></symbol><symbol id="downArrow" viewBox="0 0 26 26"><path fill-rule="evenodd" clip-rule="evenodd" d="M4.293 8.293a1 1 0 0 1 1.414 0L13 15.586l7.293-7.293a1 1 0 1 1 1.414 1.414l-8 8a1 1 0 0 1-1.414 0l-8-8a1 1 0 0 1 0-1.414Z" fill="currentColor"/></symbol><symbol id="burger" viewBox="0 0 24 24"><path fill-rule="evenodd" clip-rule="evenodd" d="M2 12a1 1 0 0 1 1-1h18a1 1 0 1 1 0 2H3a1 1 0 0 1-1-1Zm0-6a1 1 0 0 1 1-1h18a1 1 0 1 1 0 2H3a1 1 0 0 1-1-1Zm0 12a1 1 0 0 1 1-1h18a1 1 0 1 1 0 2H3a1 1 0 0 1-1-1Z" fill="currentColor"/></symbol><symbol id="success" viewBox="0 0 24 24"><path fill-rule="evenodd" clip-rule="evenodd" d="M15.663 3.773A9 9 0 1 0 21 12v-.919a1 1 0 1 1 2 0V12A11.002 11.002 0 0 1 8.188 22.313a11 11 0 1 1 8.289-20.366 1 1 0 1 1-.814 1.826Z" fill="currentColor"/><path fill-rule="evenodd" clip-rule="evenodd" d="M22.707 3.293a1 1 0 0 1 0 1.414l-10 10.01a1 1 0 0 1-1.414 0l-3-3a1 1 0 1 1 1.414-1.414L12 12.595l9.293-9.302a1 1 0 0 1 1.414 0Z" fill="currentColor"/></symbol><symbol id="error" viewBox="0 0 24 24"><path fill-rule="evenodd" clip-rule="evenodd" d="M10.528 2.283a3 3 0 0 1 4.037 1.058l.003.005 8.47 14.14.008.014a2.999 2.999 0 0 1-2.565 4.5H3.519a3.001 3.001 0 0 1-2.565-4.5l.008-.014 8.47-14.14.858.514-.855-.519a3 3 0 0 1 1.093-1.058Zm.618 2.094L2.683 18.506A1 1 0 0 0 3.536 20h16.928a1 1 0 0 0 .853-1.494L12.855 4.379l-.001-.002a1 1 0 0 0-1.708 0Z" fill="currentColor"/><path fill-rule="evenodd" clip-rule="evenodd" d="M12 8a1 1 0 0 1 1 1v4a1 1 0 1 1-2 0V9a1 1 0 0 1 1-1Zm0 7a1 1 0 0 1 1 1v.5a1 1 0 1 1-2 0V16a1 1 0 0 1 1-1Z" fill="currentColor"/></symbol><symbol id="question" viewBox="0 0 24 24"><path fill-rule="evenodd" clip-rule="evenodd" d="M12 3a9 9 0 1 0 0 18 9 9 0 0 0 0-18ZM1 12C1 5.925 5.925 1 12 1s11 4.925 11 11-4.925 11-11 11S1 18.075 1 12Z" fill="currentColor"/><path fill-rule="evenodd" clip-rule="evenodd" d="M12.258 8.024a2 2 0 0 0-2.224 1.308 1 1 0 0 1-1.887-.664 4 4 0 0 1 7.773 1.333c0 1.53-1.135 2.54-1.945 3.081a8.045 8.045 0 0 1-1.686.848l-.035.013-.011.003-.004.002h-.001s-.002 0-.318-.948l.316.949a1 1 0 0 1-.633-1.897h-.001l.017-.006a5.763 5.763 0 0 0 .364-.147c.247-.11.568-.272.882-.481.69-.46 1.055-.949 1.055-1.418v-.002a2 2 0 0 0-1.662-1.974ZM12 15a1 1 0 0 1 1 1v.5a1 1 0 1 1-2 0V16a1 1 0 0 1 1-1Z" fill="currentColor"/></symbol><symbol id="sun" viewBox="0 0 24 24"><g clip-path="url(#clip0_16769_229)" stroke="currentColor" stroke-width="2" stroke-linecap="round" stroke-linejoin="round"><path d="M12 17a5 5 0 1 0 0-10 5 5 0 0 0 0 10Zm0-16v2m0 18v2M4.22 4.22l1.42 1.42m12.72 12.72 1.42 1.42M1 12h2m18 0h2M4.22 19.78l1.42-1.42M18.36 5.64l1.42-1.42"/></g></symbol><symbol id="moon" viewBox="0 0 20 20"><path d="M19 10.79A9 9 0 1 1 9.21 1 7 7 0 0 0 19 10.79v0Z" stroke="currentColor" stroke-width="2" stroke-linecap="round" stroke-linejoin="round"/></symbol><symbol id="tooltip" viewBox="0 0 24 24"><path fill-rule="evenodd" clip-rule="evenodd" d="M12 3a9 9 0 1 0 0 18 9 9 0 0 0 0-18ZM1 12C1 5.925 5.925 1 12 1s11 4.925 11 11-4.925 11-11 11S1 18.075 1 12Z" fill="currentColor"/><path fill-rule="evenodd" clip-rule="evenodd" d="M12.258 8.024a2 2 0 0 0-2.225 1.308 1 1 0 1 1-1.886-.664 4 4 0 0 1 7.773 1.333c0 1.53-1.135 2.54-1.945 3.081a8.041 8.041 0 0 1-1.686.848l-.035.013-.011.003-.004.002h-.002L11.92 13l.316.949a1 1 0 0 1-.633-1.897H11.6h.002l.016-.006.074-.027a6.051 6.051 0 0 0 1.172-.6c.69-.46 1.055-.95 1.055-1.419v-.001a2 2 0 0 0-1.662-1.975ZM12 15a1 1 0 0 1 1 1v.5a1 1 0 1 1-2 0V16a1 1 0 0 1 1-1Z" fill="currentColor"/></symbol></defs></svg>